<?xml version="1.0" standalone="no"?>
<!DOCTYPE svg PUBLIC "-//W3C//DTD SVG 20010904//EN"
 "http://www.w3.org/TR/2001/REC-SVG-20010904/DTD/svg10.dtd">
<svg version="1.0" xmlns="http://www.w3.org/2000/svg"
 width="394.000000pt" height="370.000000pt" viewBox="0 0 394.000000 370.000000"
 preserveAspectRatio="xMidYMid meet">
<metadata>
Created by potrace 1.16, written by Peter Selinger 2001-2019
</metadata>
<g transform="translate(0.000000,370.000000) scale(0.100000,-0.100000)"
fill="#000000" stroke="none">
<path d="M1523 3636 c-36 -39 -74 -95 -102 -151 -61 -124 -75 -228 -65 -505 6
-199 7 -206 30 -227 l24 -22 0 27 c1 23 5 19 26 -25 24 -50 78 -102 91 -89 4
3 -8 21 -26 40 -33 34 -61 107 -61 158 0 19 4 28 12 26 8 -3 12 -18 10 -40 -4
-39 7 -51 48 -56 65 -7 145 -10 150 -4 3 4 14 15 26 25 54 45 75 -32 27 -95
-31 -40 -71 -58 -129 -58 -32 -1 -36 -2 -21 -11 10 -6 38 -9 62 -7 31 2 41 0
38 -9 -3 -7 2 -13 11 -13 21 0 63 68 99 160 30 77 43 100 58 100 19 0 37 -32
43 -77 7 -50 32 -129 49 -150 5 -7 16 -13 24 -13 8 0 28 -11 45 -25 22 -19 41
-25 74 -25 25 0 43 4 40 9 -3 5 8 14 24 21 64 26 95 74 131 200 15 52 26 70
45 70 21 0 17 -16 -8 -28 -19 -8 -13 -9 28 -5 l52 6 12 -72 c12 -74 3 -210
-20 -291 -9 -33 -50 -73 -50 -50 0 6 -16 -1 -35 -16 -19 -14 -35 -23 -35 -18
0 4 -17 -8 -37 -28 -21 -20 -50 -41 -65 -47 -26 -10 -28 -8 -34 24 -8 42 -25
57 -67 60 -50 3 -95 16 -108 31 -6 8 -17 14 -24 14 -8 0 -15 6 -17 12 -4 10
-10 10 -31 1 -31 -15 -36 -43 -8 -43 11 0 23 -4 26 -10 3 -5 16 -10 29 -10 13
0 31 -9 41 -20 16 -18 16 -20 2 -20 -9 0 -37 5 -62 12 -33 9 -51 9 -63 2 -10
-7 -26 -8 -39 -3 -12 4 -32 6 -45 4 -89 -18 -88 -18 -82 -1 3 9 18 19 33 22
14 4 32 11 39 17 6 5 26 7 42 3 l30 -6 -21 29 c-12 16 -30 32 -41 35 -18 4
-52 -8 -68 -24 -3 -3 -27 -16 -55 -30 -50 -25 -50 -25 -53 -78 -3 -43 -6 -51
-16 -42 -8 6 -19 9 -26 8 -6 -2 -17 6 -23 16 -7 11 -24 38 -39 59 -16 22 -28
46 -28 53 0 7 -4 14 -10 16 -5 2 -15 30 -20 63 -16 87 -16 88 -41 74 -21 -11
-21 -15 -15 -120 8 -126 18 -162 52 -183 13 -9 32 -33 42 -54 42 -87 95 -173
115 -187 20 -14 21 -22 19 -145 -2 -159 -18 -197 -110 -269 -45 -35 -51 -52
-10 -30 21 11 22 11 9 -4 -23 -28 0 -19 45 19 24 19 44 43 45 52 0 10 3 12 5
5 3 -7 0 -21 -6 -33 -15 -29 -2 -45 18 -22 10 10 25 22 36 25 14 5 16 13 11
30 -4 12 -7 44 -8 70 -1 35 -5 46 -14 43 -16 -7 -18 75 -3 105 12 21 30 26 30
7 1 -24 60 -78 122 -111 107 -57 112 -56 230 22 131 87 278 225 282 264 2 15
12 38 24 50 11 12 29 41 41 64 11 23 25 44 30 48 19 11 44 122 47 210 2 78 6
92 25 107 20 17 21 22 12 91 -6 39 -12 79 -14 87 -2 8 1 14 6 15 6 0 17 5 25
10 8 6 22 10 30 11 50 3 51 4 48 27 -4 31 -37 32 -72 2 -21 -18 -32 -22 -37
-14 -8 14 -1 39 11 39 5 0 24 10 44 23 33 21 35 26 36 77 1 30 3 62 5 70 17
80 24 149 24 223 1 77 -3 99 -29 159 -17 39 -30 87 -30 109 0 61 -19 88 -110
155 l-85 64 -357 0 -357 -1 -58 -63z m317 -186 c63 -5 149 -10 191 -10 62 0
81 -4 102 -20 18 -15 34 -19 52 -14 19 5 34 -1 60 -20 19 -15 39 -25 44 -22 5
3 30 -11 56 -31 l47 -36 -6 -91 c-3 -50 -9 -142 -12 -203 -6 -95 -9 -113 -23
-113 -18 0 -103 37 -111 49 -3 4 -26 22 -52 40 -45 32 -51 34 -131 32 -46 0
-93 -4 -103 -8 -40 -17 -84 -48 -84 -60 0 -28 -90 -37 -90 -9 0 6 -17 23 -38
38 -33 23 -40 24 -56 12 -11 -7 -23 -11 -28 -8 -4 3 -11 -1 -14 -9 -6 -17 -44
-11 -44 7 0 6 -5 4 -10 -4 -8 -12 -10 -9 -10 13 0 31 1 30 -70 17 -54 -10 -83
-5 -59 11 12 8 12 11 -1 18 -21 14 -18 121 4 133 9 5 16 20 16 33 0 19 -5 25
-22 26 -22 0 -22 1 -3 8 11 5 22 4 23 0 9 -22 22 -6 22 26 0 19 5 35 10 35 5
0 9 3 8 8 0 4 2 15 5 25 4 9 10 25 14 35 3 9 5 20 5 25 -1 4 4 7 11 7 7 0 18
9 25 20 7 11 18 20 26 20 7 0 19 6 26 14 12 16 52 25 85 19 11 -1 72 -7 135
-13z m220 -600 c0 -11 4 -20 9 -20 4 0 12 -15 17 -32 10 -35 38 -48 57 -29 9
9 8 14 -2 20 -7 5 -11 13 -7 19 3 6 1 12 -6 15 -7 2 -4 3 7 1 11 -2 30 -4 43
-4 13 0 22 -6 22 -16 0 -11 5 -14 16 -10 14 5 16 0 11 -35 -8 -60 -50 -117
-105 -141 -41 -19 -52 -20 -92 -9 -52 14 -84 41 -111 93 -25 50 -24 56 11 54
25 -2 30 2 30 19 0 15 10 25 35 35 19 7 32 17 29 22 -9 14 4 38 21 38 8 0 15
-9 15 -20z m-126 -540 c14 -5 26 -16 26 -25 0 -8 9 -15 19 -15 34 0 51 -12 51
-34 0 -12 7 -31 15 -42 15 -20 19 -62 7 -80 -20 -30 -79 -42 -124 -25 -13 5
-25 8 -28 8 -16 -3 -50 41 -50 64 0 22 5 28 33 33 19 3 42 13 53 21 19 14 19
14 0 28 -15 11 -43 13 -114 11 -52 -3 -98 -7 -103 -10 -16 -10 -9 -24 16 -34
14 -5 30 -21 35 -36 8 -20 13 -24 24 -15 15 13 26 5 26 -20 0 -26 -18 -33 -46
-18 -27 14 -47 4 -24 -12 13 -9 12 -10 -2 -6 -9 3 -33 1 -52 -5 -44 -14 -67 2
-71 48 -1 16 -6 41 -10 55 -10 39 27 109 55 102 11 -3 20 0 20 6 0 14 208 15
244 1z"/>
<path d="M1706 2558 c-9 -5 -16 -20 -16 -34 0 -24 2 -25 38 -19 29 5 42 2 52
-9 16 -20 69 -20 94 -1 22 17 50 20 41 5 -7 -11 18 -13 53 -4 14 4 22 14 22
28 0 15 -7 21 -22 22 -13 1 -40 6 -60 12 -27 7 -42 6 -55 -3 -31 -21 -70 -26
-82 -11 -16 19 -45 25 -65 14z"/>
<path d="M2372 2088 c-26 -59 -130 -185 -310 -376 -50 -53 -86 -102 -79 -109
4 -3 13 0 21 6 33 28 -3 -48 -76 -160 -41 -63 -92 -143 -113 -179 -42 -70 -58
-91 -144 -188 -31 -35 -100 -128 -153 -205 -53 -78 -108 -159 -122 -179 -14
-21 -30 -38 -35 -38 -5 0 -19 37 -31 82 -50 185 -33 453 43 680 14 42 33 88
42 101 14 23 14 28 -10 78 -14 30 -25 59 -25 66 0 20 -54 102 -69 105 -8 2
-40 -9 -71 -24 -31 -15 -86 -35 -121 -44 -110 -28 -156 -68 -218 -191 -51
-102 -78 -221 -122 -533 -22 -162 -47 -307 -55 -323 -28 -53 -54 -179 -54
-260 0 -74 -4 -91 -55 -218 -30 -75 -55 -147 -55 -158 l0 -21 1434 0 1434 0 6
22 c3 13 6 41 6 63 0 22 4 56 9 76 6 26 3 52 -10 95 -27 84 -26 226 1 279 11
22 20 57 20 80 0 22 -9 72 -20 110 -11 40 -20 100 -20 140 0 146 -41 428 -76
527 -46 132 -140 213 -290 252 -33 9 -100 38 -150 65 -344 189 -354 196 -440
341 -26 44 -53 80 -60 80 -7 0 -22 -19 -32 -42z"/>
</g>
</svg>
